<?xml version="1.0" encoding="UTF-8"?>
<svg width="298px" height="322px" viewBox="0 0 298 322" version="1.1" xmlns="http://www.w3.org/2000/svg" xmlns:xlink="http://www.w3.org/1999/xlink">
    <!-- Generator: Sketch 43.2 (39069) - http://www.bohemiancoding.com/sketch -->
    <title>imis-logo</title>
    <desc>Created with Sketch.</desc>
    <defs></defs>
    <g id="Page-1" stroke="none" stroke-width="1" fill="none" fill-rule="evenodd">
        <g id="og:image" transform="translate(-222.000000, -154.000000)" fill-rule="nonzero">
            <g id="imis-logo" transform="translate(222.000000, 154.000000)">
                <g id="logo-wirs-vs-virus-projekt-black-font.2487c751">
                    <path d="M238.85503,24.0055297 C241.83503,24.0955297 244.66503,25.3455297 246.74503,27.4855297 C313.82503,94.5654297 313.82503,203.66543 246.74503,270.74543 C179.66503,337.82543 70.5550302,337.82543 3.48503023,270.74543 C-1.06496977,266.32543 -1.17496977,259.06543 3.24503023,254.51543 C7.66503023,249.96543 14.9350302,249.85543 19.4850302,254.27543 C19.5650302,254.35543 19.6450302,254.43543 19.7250302,254.51543 C78.0250302,312.81543 172.21503,312.81543 230.51503,254.51543 C288.81503,196.21543 288.81503,102.02543 230.51503,43.7255297 C225.96503,39.3055297 225.86503,32.0355297 230.28503,27.4855297 C232.52503,25.1655297 235.63503,23.9055297 238.85503,24.0055297 Z" id="Shape" fill="#CECECE"></path>
                    <path d="M125.661457,0 C178.851457,0 228.141457,28.42 254.701457,74.5398 C281.341457,120.6398 281.341457,177.5098 254.701457,223.6198 C228.141457,269.7298 178.841457,298.1498 125.661457,298.1498 C119.321457,298.2498 114.101457,293.1898 114.001457,286.8498 C113.901457,280.5098 118.961457,275.2898 125.301457,275.1898 L125.661457,275.1898 C170.671457,275.1898 212.351457,251.1598 234.811457,212.1498 L234.811457,212.1398 L234.821457,212.1298 C257.371457,173.0998 257.371457,125.0598 234.821457,86.0298 L234.811457,86.0198 L234.811457,86.0098 C212.351457,46.99 170.671457,22.96 125.661457,22.96 C119.321457,23.06 114.101457,18 114.001457,11.66 C113.901457,5.32 118.961457,0.1 125.301457,0 L125.661457,0 Z" id="Shape" fill="#DEDEDE"></path>
                    <path d="M125.69503,23 C158.00503,23 190.31503,35.3 214.90503,59.89 C264.01503,109.0002 264.00503,189.0302 214.91503,238.2202 C210.47503,242.7502 203.20503,242.8302 198.67503,238.3902 C194.14503,233.9502 194.06503,226.6802 198.50503,222.1502 C198.55503,222.1002 198.60503,222.0502 198.66503,221.9902 C239.00503,181.5702 238.99503,116.4402 198.67503,76.1102 C158.24503,35.7 93.1350302,35.7 52.7150302,76.1202 C48.2950302,80.6702 41.0350302,80.7802 36.4850302,76.3602 C31.9350302,71.9402 31.8250302,64.6702 36.2450302,60.12 C36.3250302,60.04 36.4050302,59.96 36.4850302,59.88 C61.0750302,35.29 93.3850302,23 125.69503,23 Z" id="Shape" fill="#F2F2F2"></path>
                </g>
            </g>
        </g>
    </g>
</svg>