<?xml version="1.0" encoding="UTF-8"?>
<svg width="1200px" height="630px" viewBox="0 0 1200 630" version="1.1" xmlns="http://www.w3.org/2000/svg" xmlns:xlink="http://www.w3.org/1999/xlink">
    <!-- Generator: Sketch 43.2 (39069) - http://www.bohemiancoding.com/sketch -->
    <title>wave-bg</title>
    <desc>Created with Sketch.</desc>
    <defs></defs>
    <g id="Page-1" stroke="none" stroke-width="1" fill="none" fill-rule="evenodd">
        <g id="og:image" fill-rule="nonzero">
            <g id="wave-bg">
                <rect id="Rectangle-path" fill="#1F27B8" x="0" y="0" width="1199.25047" height="630"></rect>
                <g id="Group">
                    <path d="M364.27233,555.8175 C282.348532,538.65 196.826983,530.46 112.954403,540.54 C74.5783885,545.02875 36.7270456,553.6125 0,566.8425 L0,630 L632.454716,630 C545.58401,603.855 459.462836,576.37125 371.917552,557.3925 C369.369144,556.84125 366.820737,556.36875 364.27233,555.8175 Z" id="Shape" fill="#1E32C6"></path>
                    <path d="M1199.25047,0 L0,0 L0,566.8425 C36.7270456,553.6125 74.5783885,544.95 112.954403,540.46125 C196.826983,530.46 282.348532,538.57125 364.27233,555.73875 C366.820737,556.29 369.369144,556.84125 371.917552,557.31375 C459.462836,576.21375 545.58401,603.77625 632.454716,629.92125 L1199.25047,629.92125 L1199.25047,0 Z" id="Shape" fill="#1D3DD4"></path>
                    <path d="M358.57589,457.5375 C360.974391,458.1675 363.372892,458.87625 365.69644,459.50625 C512.754528,500.85 657.03935,564.6375 810.54341,598.57875 C941.111805,627.40125 1072.50468,621.57375 1199.25047,590.54625 L1199.25047,0 L0,0 L0,452.73375 C39.2004997,438.87375 79.8251093,430.92 120.749532,428.4 C201.174266,423.2025 281.599001,436.4325 358.57589,457.5375 Z" id="Shape" fill="#1B48E3"></path>
                    <path d="M0,0 L0,338.1525 C41.6739538,323.6625 85.0718301,316.65375 128.469706,316.33875 C205.521549,315.70875 280.774516,334.215 352.804497,359.2575 C355.053092,360.045 357.226733,360.8325 359.475328,361.62 C497.089319,410.445 633.579013,476.67375 781.011868,512.89875 C920.949407,547.3125 1063.06059,539.98875 1199.17552,502.97625 L1199.17552,0 L0,0 Z" id="Shape" fill="#1A53F1"></path>
                    <path d="M136.264834,204.2775 C209.868832,209.0025 280.099938,231.9975 347.108057,261.05625 C349.206746,261.9225 351.230481,262.8675 353.329169,263.73375 C481.499063,320.11875 610.193629,388.5525 751.555278,427.2975 C900.562149,468.09 1053.9163,459.4275 1199.25047,415.6425 L1199.25047,0 L0,0 L0,223.02 C44.222361,207.585 90.3935041,201.36375 136.264834,204.2775 Z" id="Shape" fill="#195EFF"></path>
                    <path d="M1199.25047,0 L0,0 L0,107.33625 C46.6958151,90.8775 95.715178,85.68 144.059963,92.21625 C214.216115,101.745 279.350406,129.78 341.411618,162.77625 C343.3604,163.8 345.234229,164.82375 347.183011,165.8475 C465.908807,229.71375 586.808245,300.43125 722.173641,341.6175 C879.950031,389.655 1045.07183,380.205 1199.32542,328.545 L1199.32542,0 L1199.25047,0 Z" id="Shape" fill="#1751DE"></path>
                    <path d="M340.961899,67.96125 C450.243598,139.3875 563.347908,212.07375 692.642099,255.9375 C848.994379,309.015 1015.91505,303.8175 1170.76827,251.76375 C1180.36227,248.535 1189.80637,245.14875 1199.32542,241.605 L1199.32542,0 L215.940037,0 C257.913804,16.77375 297.414116,39.8475 335.640225,64.575 C337.439101,65.6775 339.163023,66.85875 340.961899,67.96125 Z" id="Shape" fill="#1544BE"></path>
                    <path d="M1199.25047,0 L373.266708,0 C461.786384,67.5675 555.777639,129.54375 663.185509,170.2575 C806.945659,224.7525 962.998126,229.08375 1109.15678,186.87375 C1139.73766,178.05375 1169.94379,167.02875 1199.32542,154.035 L1199.32542,0 L1199.25047,0 Z" id="Shape" fill="#14389D"></path>
                    <path d="M1047.47033,121.905 C1082.84822,113.5575 1117.62648,101.98125 1151.3554,87.4125 C1167.62024,80.40375 1183.58526,72.6075 1199.25047,64.18125 L1199.25047,0 L482.248595,0 C529.394129,32.83875 579.462836,61.5825 633.728919,84.5775 C764.821986,140.25375 910.081199,154.42875 1047.47033,121.905 Z" id="Shape" fill="#122B7D"></path>
                    <path d="M985.858838,57.015 C1042.29856,47.0925 1097.46408,27.79875 1148.35728,0 L606.445971,0 C724.647096,55.9125 857.988757,79.5375 985.858838,57.015 Z" id="Shape" fill="#101E5C"></path>
                </g>
            </g>
        </g>
    </g>
</svg>