<?xml version="1.0" encoding="UTF-8"?>
<svg width="322px" height="322px" viewBox="0 0 322 322" version="1.1" xmlns="http://www.w3.org/2000/svg" xmlns:xlink="http://www.w3.org/1999/xlink">
    <!-- Generator: Sketch 43.2 (39069) - http://www.bohemiancoding.com/sketch -->
    <title>imis-logo</title>
    <desc>Created with Sketch.</desc>
    <defs></defs>
    <g id="Page-1" stroke="none" stroke-width="1" fill="none" fill-rule="evenodd">
        <g id="og:image" transform="translate(-439.000000, -154.000000)">
            <g id="imis-logo" transform="translate(439.000000, 154.000000)">
                <path d="M0.3,193 L0.3,122.2 L17.5,122.2 L17.5,193 L0.3,193 Z M96.3,193 L96.7,142.9 L96.4,142.9 L78,193 L66,193 L48.1,142.9 L47.8,142.9 L48.2,193 L32.1,193 L32.1,122.2 L56.4,122.2 L72.5,167.6 L72.9,167.6 L88.3,122.2 L113,122.2 L113,193 L96.3,193 Z M127.6,193 L127.6,122.2 L144.8,122.2 L144.8,193 L127.6,193 Z M196.8,140.6 C195.333326,138.733324 193.416678,137.250005 191.05,136.15 C188.683321,135.049994 186.400011,134.5 184.2,134.5 C183.066661,134.5 181.916672,134.599999 180.75,134.8 C179.583327,135.000001 178.533338,135.38333 177.6,135.95 C176.666662,136.516669 175.883336,137.249996 175.25,138.15 C174.616663,139.050005 174.3,140.199993 174.3,141.6 C174.3,142.800006 174.549997,143.799996 175.05,144.6 C175.550002,145.400004 176.283328,146.099997 177.25,146.7 C178.216671,147.300003 179.36666,147.849998 180.7,148.35 C182.03334,148.850002 183.533325,149.366664 185.2,149.9 C187.600012,150.700004 190.099987,151.583328 192.7,152.55 C195.300013,153.516672 197.666656,154.799992 199.8,156.4 C201.933344,158.000008 203.699993,159.983321 205.1,162.35 C206.500007,164.716679 207.2,167.666649 207.2,171.2 C207.2,175.266687 206.450007,178.783319 204.95,181.75 C203.449992,184.716681 201.433346,187.166657 198.9,189.1 C196.366654,191.033343 193.466683,192.466662 190.2,193.4 C186.933317,194.333338 183.566684,194.8 180.1,194.8 C175.033308,194.8 170.133357,193.916675 165.4,192.15 C160.666643,190.383325 156.733349,187.866683 153.6,184.6 L164.8,173.2 C166.533342,175.333344 168.816652,177.116659 171.65,178.55 C174.483347,179.98334 177.299986,180.7 180.1,180.7 C181.366673,180.7 182.599994,180.566668 183.8,180.3 C185.000006,180.033332 186.049995,179.600003 186.95,179 C187.850004,178.399997 188.566664,177.600005 189.1,176.6 C189.633336,175.599995 189.9,174.400007 189.9,173 C189.9,171.66666 189.56667,170.533338 188.9,169.6 C188.23333,168.666662 187.283339,167.81667 186.05,167.05 C184.81666,166.28333 183.283342,165.583337 181.45,164.95 C179.616657,164.316664 177.533345,163.633337 175.2,162.9 C172.933322,162.166663 170.716677,161.300005 168.55,160.3 C166.383322,159.299995 164.450008,158.016674 162.75,156.45 C161.049991,154.883326 159.683338,152.983344 158.65,150.75 C157.616661,148.516656 157.1,145.800016 157.1,142.6 C157.1,138.666647 157.899992,135.300014 159.5,132.5 C161.100008,129.699986 163.199987,127.400009 165.8,125.6 C168.400013,123.799991 171.333317,122.483338 174.6,121.65 C177.866683,120.816663 181.16665,120.4 184.5,120.4 C188.50002,120.4 192.583312,121.133326 196.75,122.6 C200.916687,124.066674 204.566651,126.233319 207.7,129.1 L196.8,140.6 Z" id="IMIS" fill="#000000"></path>
                <g id="logo-wirs-vs-virus-projekt-black-font.2487c751" transform="translate(24.000000, 0.000000)" fill-rule="nonzero">
                    <path d="M238.85503,24.0055297 C241.83503,24.0955297 244.66503,25.3455297 246.74503,27.4855297 C313.82503,94.5654297 313.82503,203.66543 246.74503,270.74543 C179.66503,337.82543 70.5550302,337.82543 3.48503023,270.74543 C-1.06496977,266.32543 -1.17496977,259.06543 3.24503023,254.51543 C7.66503023,249.96543 14.9350302,249.85543 19.4850302,254.27543 C19.5650302,254.35543 19.6450302,254.43543 19.7250302,254.51543 C78.0250302,312.81543 172.21503,312.81543 230.51503,254.51543 C288.81503,196.21543 288.81503,102.02543 230.51503,43.7255297 C225.96503,39.3055297 225.86503,32.0355297 230.28503,27.4855297 C232.52503,25.1655297 235.63503,23.9055297 238.85503,24.0055297 Z" id="Shape" fill="#000000"></path>
                    <path d="M125.661457,0 C178.851457,0 228.141457,28.42 254.701457,74.5398 C281.341457,120.6398 281.341457,177.5098 254.701457,223.6198 C228.141457,269.7298 178.841457,298.1498 125.661457,298.1498 C119.321457,298.2498 114.101457,293.1898 114.001457,286.8498 C113.901457,280.5098 118.961457,275.2898 125.301457,275.1898 L125.661457,275.1898 C170.671457,275.1898 212.351457,251.1598 234.811457,212.1498 L234.811457,212.1398 L234.821457,212.1298 C257.371457,173.0998 257.371457,125.0598 234.821457,86.0298 L234.811457,86.0198 L234.811457,86.0098 C212.351457,46.99 170.671457,22.96 125.661457,22.96 C119.321457,23.06 114.101457,18 114.001457,11.66 C113.901457,5.32 118.961457,0.1 125.301457,0 L125.661457,0 Z" id="Shape" fill="#DE0000"></path>
                    <path d="M125.69503,23 C158.00503,23 190.31503,35.3 214.90503,59.89 C264.01503,109.0002 264.00503,189.0302 214.91503,238.2202 C210.47503,242.7502 203.20503,242.8302 198.67503,238.3902 C194.14503,233.9502 194.06503,226.6802 198.50503,222.1502 C198.55503,222.1002 198.60503,222.0502 198.66503,221.9902 C239.00503,181.5702 238.99503,116.4402 198.67503,76.1102 C158.24503,35.7 93.1350302,35.7 52.7150302,76.1202 C48.2950302,80.6702 41.0350302,80.7802 36.4850302,76.3602 C31.9350302,71.9402 31.8250302,64.6702 36.2450302,60.12 C36.3250302,60.04 36.4050302,59.96 36.4850302,59.88 C61.0750302,35.29 93.3850302,23 125.69503,23 Z" id="Shape" fill="#FFCF00"></path>
                </g>
            </g>
        </g>
    </g>
</svg>